<?xml version="1.0" encoding="utf-8" standalone="no"?>
<!DOCTYPE svg PUBLIC "-//W3C//DTD SVG 1.1//EN"
  "http://www.w3.org/Graphics/SVG/1.1/DTD/svg11.dtd">
<svg xmlns:xlink="http://www.w3.org/1999/xlink" width="664.390937pt" height="341.91465pt" viewBox="0 0 664.390937 341.91465" xmlns="http://www.w3.org/2000/svg" version="1.1">
 <metadata>
  <rdf:RDF xmlns:dc="http://purl.org/dc/elements/1.1/" xmlns:cc="http://creativecommons.org/ns#" xmlns:rdf="http://www.w3.org/1999/02/22-rdf-syntax-ns#">
   <cc:Work>
    <dc:type rdf:resource="http://purl.org/dc/dcmitype/StillImage"/>
    <dc:date>2026-07-08T01:55:21.723682</dc:date>
    <dc:format>image/svg+xml</dc:format>
    <dc:creator>
     <cc:Agent>
      <dc:title>Matplotlib v3.10.9, https://matplotlib.org/</dc:title>
     </cc:Agent>
    </dc:creator>
   </cc:Work>
  </rdf:RDF>
 </metadata>
 <defs>
  <style type="text/css">*{stroke-linejoin: round; stroke-linecap: butt}</style>
 </defs>
 <g id="figure_1">
  <g id="patch_1">
   <path d="M 0 341.91465 
L 664.390937 341.91465 
L 664.390937 0 
L 0 0 
L 0 341.91465 
z
" style="fill: none"/>
  </g>
  <g id="axes_1">
   <g id="patch_2">
    <path d="M 177.310938 304.3584 
L 657.190938 304.3584 
L 657.190938 7.2 
L 177.310938 7.2 
L 177.310938 304.3584 
z
" style="fill: none"/>
   </g>
   <g id="matplotlib.axis_1">
    <g id="xtick_1">
     <g id="line2d_1">
      <path d="M 177.310938 304.3584 
L 177.310938 7.2 
" clip-path="url(#pd478d3fde5)" style="fill: none; stroke: #3d444d; stroke-width: 0.6; stroke-linecap: square"/>
     </g>
     <g id="line2d_2">
      <defs>
       <path id="mc32cb07e45" d="M 0 0 
L 0 3.5 
" style="stroke: #e6edf3; stroke-width: 0.8"/>
      </defs>
      <g>
       <use xlink:href="#mc32cb07e45" x="177.310938" y="304.3584" style="fill: #e6edf3; stroke: #e6edf3; stroke-width: 0.8"/>
      </g>
     </g>
     <g id="text_1">
      <!-- 0 -->
      <g style="fill: #e6edf3" transform="translate(174.129688 318.956838) scale(0.1 -0.1)">
       <defs>
        <path id="DejaVuSans-30" d="M 2034 4250 
Q 1547 4250 1301 3770 
Q 1056 3291 1056 2328 
Q 1056 1369 1301 889 
Q 1547 409 2034 409 
Q 2525 409 2770 889 
Q 3016 1369 3016 2328 
Q 3016 3291 2770 3770 
Q 2525 4250 2034 4250 
z
M 2034 4750 
Q 2819 4750 3233 4129 
Q 3647 3509 3647 2328 
Q 3647 1150 3233 529 
Q 2819 -91 2034 -91 
Q 1250 -91 836 529 
Q 422 1150 422 2328 
Q 422 3509 836 4129 
Q 1250 4750 2034 4750 
z
" transform="scale(0.015625)"/>
       </defs>
       <use xlink:href="#DejaVuSans-30"/>
      </g>
     </g>
    </g>
    <g id="xtick_2">
     <g id="line2d_3">
      <path d="M 239.698997 304.3584 
L 239.698997 7.2 
" clip-path="url(#pd478d3fde5)" style="fill: none; stroke: #3d444d; stroke-width: 0.6; stroke-linecap: square"/>
     </g>
     <g id="line2d_4">
      <g>
       <use xlink:href="#mc32cb07e45" x="239.698997" y="304.3584" style="fill: #e6edf3; stroke: #e6edf3; stroke-width: 0.8"/>
      </g>
     </g>
     <g id="text_2">
      <!-- 1 -->
      <g style="fill: #e6edf3" transform="translate(236.517747 318.956838) scale(0.1 -0.1)">
       <defs>
        <path id="DejaVuSans-31" d="M 794 531 
L 1825 531 
L 1825 4091 
L 703 3866 
L 703 4441 
L 1819 4666 
L 2450 4666 
L 2450 531 
L 3481 531 
L 3481 0 
L 794 0 
L 794 531 
z
" transform="scale(0.015625)"/>
       </defs>
       <use xlink:href="#DejaVuSans-31"/>
      </g>
     </g>
    </g>
    <g id="xtick_3">
     <g id="line2d_5">
      <path d="M 302.087056 304.3584 
L 302.087056 7.2 
" clip-path="url(#pd478d3fde5)" style="fill: none; stroke: #3d444d; stroke-width: 0.6; stroke-linecap: square"/>
     </g>
     <g id="line2d_6">
      <g>
       <use xlink:href="#mc32cb07e45" x="302.087056" y="304.3584" style="fill: #e6edf3; stroke: #e6edf3; stroke-width: 0.8"/>
      </g>
     </g>
     <g id="text_3">
      <!-- 2 -->
      <g style="fill: #e6edf3" transform="translate(298.905806 318.956838) scale(0.1 -0.1)">
       <defs>
        <path id="DejaVuSans-32" d="M 1228 531 
L 3431 531 
L 3431 0 
L 469 0 
L 469 531 
Q 828 903 1448 1529 
Q 2069 2156 2228 2338 
Q 2531 2678 2651 2914 
Q 2772 3150 2772 3378 
Q 2772 3750 2511 3984 
Q 2250 4219 1831 4219 
Q 1534 4219 1204 4116 
Q 875 4013 500 3803 
L 500 4441 
Q 881 4594 1212 4672 
Q 1544 4750 1819 4750 
Q 2544 4750 2975 4387 
Q 3406 4025 3406 3419 
Q 3406 3131 3298 2873 
Q 3191 2616 2906 2266 
Q 2828 2175 2409 1742 
Q 1991 1309 1228 531 
z
" transform="scale(0.015625)"/>
       </defs>
       <use xlink:href="#DejaVuSans-32"/>
      </g>
     </g>
    </g>
    <g id="xtick_4">
     <g id="line2d_7">
      <path d="M 364.475115 304.3584 
L 364.475115 7.2 
" clip-path="url(#pd478d3fde5)" style="fill: none; stroke: #3d444d; stroke-width: 0.6; stroke-linecap: square"/>
     </g>
     <g id="line2d_8">
      <g>
       <use xlink:href="#mc32cb07e45" x="364.475115" y="304.3584" style="fill: #e6edf3; stroke: #e6edf3; stroke-width: 0.8"/>
      </g>
     </g>
     <g id="text_4">
      <!-- 3 -->
      <g style="fill: #e6edf3" transform="translate(361.293865 318.956838) scale(0.1 -0.1)">
       <defs>
        <path id="DejaVuSans-33" d="M 2597 2516 
Q 3050 2419 3304 2112 
Q 3559 1806 3559 1356 
Q 3559 666 3084 287 
Q 2609 -91 1734 -91 
Q 1441 -91 1130 -33 
Q 819 25 488 141 
L 488 750 
Q 750 597 1062 519 
Q 1375 441 1716 441 
Q 2309 441 2620 675 
Q 2931 909 2931 1356 
Q 2931 1769 2642 2001 
Q 2353 2234 1838 2234 
L 1294 2234 
L 1294 2753 
L 1863 2753 
Q 2328 2753 2575 2939 
Q 2822 3125 2822 3475 
Q 2822 3834 2567 4026 
Q 2313 4219 1838 4219 
Q 1578 4219 1281 4162 
Q 984 4106 628 3988 
L 628 4550 
Q 988 4650 1302 4700 
Q 1616 4750 1894 4750 
Q 2613 4750 3031 4423 
Q 3450 4097 3450 3541 
Q 3450 3153 3228 2886 
Q 3006 2619 2597 2516 
z
" transform="scale(0.015625)"/>
       </defs>
       <use xlink:href="#DejaVuSans-33"/>
      </g>
     </g>
    </g>
    <g id="xtick_5">
     <g id="line2d_9">
      <path d="M 426.863175 304.3584 
L 426.863175 7.2 
" clip-path="url(#pd478d3fde5)" style="fill: none; stroke: #3d444d; stroke-width: 0.6; stroke-linecap: square"/>
     </g>
     <g id="line2d_10">
      <g>
       <use xlink:href="#mc32cb07e45" x="426.863175" y="304.3584" style="fill: #e6edf3; stroke: #e6edf3; stroke-width: 0.8"/>
      </g>
     </g>
     <g id="text_5">
      <!-- 4 -->
      <g style="fill: #e6edf3" transform="translate(423.681925 318.956838) scale(0.1 -0.1)">
       <defs>
        <path id="DejaVuSans-34" d="M 2419 4116 
L 825 1625 
L 2419 1625 
L 2419 4116 
z
M 2253 4666 
L 3047 4666 
L 3047 1625 
L 3713 1625 
L 3713 1100 
L 3047 1100 
L 3047 0 
L 2419 0 
L 2419 1100 
L 313 1100 
L 313 1709 
L 2253 4666 
z
" transform="scale(0.015625)"/>
       </defs>
       <use xlink:href="#DejaVuSans-34"/>
      </g>
     </g>
    </g>
    <g id="xtick_6">
     <g id="line2d_11">
      <path d="M 489.251234 304.3584 
L 489.251234 7.2 
" clip-path="url(#pd478d3fde5)" style="fill: none; stroke: #3d444d; stroke-width: 0.6; stroke-linecap: square"/>
     </g>
     <g id="line2d_12">
      <g>
       <use xlink:href="#mc32cb07e45" x="489.251234" y="304.3584" style="fill: #e6edf3; stroke: #e6edf3; stroke-width: 0.8"/>
      </g>
     </g>
     <g id="text_6">
      <!-- 5 -->
      <g style="fill: #e6edf3" transform="translate(486.069984 318.956838) scale(0.1 -0.1)">
       <defs>
        <path id="DejaVuSans-35" d="M 691 4666 
L 3169 4666 
L 3169 4134 
L 1269 4134 
L 1269 2991 
Q 1406 3038 1543 3061 
Q 1681 3084 1819 3084 
Q 2600 3084 3056 2656 
Q 3513 2228 3513 1497 
Q 3513 744 3044 326 
Q 2575 -91 1722 -91 
Q 1428 -91 1123 -41 
Q 819 9 494 109 
L 494 744 
Q 775 591 1075 516 
Q 1375 441 1709 441 
Q 2250 441 2565 725 
Q 2881 1009 2881 1497 
Q 2881 1984 2565 2268 
Q 2250 2553 1709 2553 
Q 1456 2553 1204 2497 
Q 953 2441 691 2322 
L 691 4666 
z
" transform="scale(0.015625)"/>
       </defs>
       <use xlink:href="#DejaVuSans-35"/>
      </g>
     </g>
    </g>
    <g id="xtick_7">
     <g id="line2d_13">
      <path d="M 551.639293 304.3584 
L 551.639293 7.2 
" clip-path="url(#pd478d3fde5)" style="fill: none; stroke: #3d444d; stroke-width: 0.6; stroke-linecap: square"/>
     </g>
     <g id="line2d_14">
      <g>
       <use xlink:href="#mc32cb07e45" x="551.639293" y="304.3584" style="fill: #e6edf3; stroke: #e6edf3; stroke-width: 0.8"/>
      </g>
     </g>
     <g id="text_7">
      <!-- 6 -->
      <g style="fill: #e6edf3" transform="translate(548.458043 318.956838) scale(0.1 -0.1)">
       <defs>
        <path id="DejaVuSans-36" d="M 2113 2584 
Q 1688 2584 1439 2293 
Q 1191 2003 1191 1497 
Q 1191 994 1439 701 
Q 1688 409 2113 409 
Q 2538 409 2786 701 
Q 3034 994 3034 1497 
Q 3034 2003 2786 2293 
Q 2538 2584 2113 2584 
z
M 3366 4563 
L 3366 3988 
Q 3128 4100 2886 4159 
Q 2644 4219 2406 4219 
Q 1781 4219 1451 3797 
Q 1122 3375 1075 2522 
Q 1259 2794 1537 2939 
Q 1816 3084 2150 3084 
Q 2853 3084 3261 2657 
Q 3669 2231 3669 1497 
Q 3669 778 3244 343 
Q 2819 -91 2113 -91 
Q 1303 -91 875 529 
Q 447 1150 447 2328 
Q 447 3434 972 4092 
Q 1497 4750 2381 4750 
Q 2619 4750 2861 4703 
Q 3103 4656 3366 4563 
z
" transform="scale(0.015625)"/>
       </defs>
       <use xlink:href="#DejaVuSans-36"/>
      </g>
     </g>
    </g>
    <g id="xtick_8">
     <g id="line2d_15">
      <path d="M 614.027353 304.3584 
L 614.027353 7.2 
" clip-path="url(#pd478d3fde5)" style="fill: none; stroke: #3d444d; stroke-width: 0.6; stroke-linecap: square"/>
     </g>
     <g id="line2d_16">
      <g>
       <use xlink:href="#mc32cb07e45" x="614.027353" y="304.3584" style="fill: #e6edf3; stroke: #e6edf3; stroke-width: 0.8"/>
      </g>
     </g>
     <g id="text_8">
      <!-- 7 -->
      <g style="fill: #e6edf3" transform="translate(610.846103 318.956838) scale(0.1 -0.1)">
       <defs>
        <path id="DejaVuSans-37" d="M 525 4666 
L 3525 4666 
L 3525 4397 
L 1831 0 
L 1172 0 
L 2766 4134 
L 525 4134 
L 525 4666 
z
" transform="scale(0.015625)"/>
       </defs>
       <use xlink:href="#DejaVuSans-37"/>
      </g>
     </g>
    </g>
    <g id="text_9">
     <!-- wall time, median of 5 (lower is better) -->
     <g style="fill: #e6edf3" transform="translate(319.699375 332.634962) scale(0.1 -0.1)">
      <defs>
       <path id="DejaVuSans-77" d="M 269 3500 
L 844 3500 
L 1563 769 
L 2278 3500 
L 2956 3500 
L 3675 769 
L 4391 3500 
L 4966 3500 
L 4050 0 
L 3372 0 
L 2619 2869 
L 1863 0 
L 1184 0 
L 269 3500 
z
" transform="scale(0.015625)"/>
       <path id="DejaVuSans-61" d="M 2194 1759 
Q 1497 1759 1228 1600 
Q 959 1441 959 1056 
Q 959 750 1161 570 
Q 1363 391 1709 391 
Q 2188 391 2477 730 
Q 2766 1069 2766 1631 
L 2766 1759 
L 2194 1759 
z
M 3341 1997 
L 3341 0 
L 2766 0 
L 2766 531 
Q 2569 213 2275 61 
Q 1981 -91 1556 -91 
Q 1019 -91 701 211 
Q 384 513 384 1019 
Q 384 1609 779 1909 
Q 1175 2209 1959 2209 
L 2766 2209 
L 2766 2266 
Q 2766 2663 2505 2880 
Q 2244 3097 1772 3097 
Q 1472 3097 1187 3025 
Q 903 2953 641 2809 
L 641 3341 
Q 956 3463 1253 3523 
Q 1550 3584 1831 3584 
Q 2591 3584 2966 3190 
Q 3341 2797 3341 1997 
z
" transform="scale(0.015625)"/>
       <path id="DejaVuSans-6c" d="M 603 4863 
L 1178 4863 
L 1178 0 
L 603 0 
L 603 4863 
z
" transform="scale(0.015625)"/>
       <path id="DejaVuSans-20" transform="scale(0.015625)"/>
       <path id="DejaVuSans-74" d="M 1172 4494 
L 1172 3500 
L 2356 3500 
L 2356 3053 
L 1172 3053 
L 1172 1153 
Q 1172 725 1289 603 
Q 1406 481 1766 481 
L 2356 481 
L 2356 0 
L 1766 0 
Q 1100 0 847 248 
Q 594 497 594 1153 
L 594 3053 
L 172 3053 
L 172 3500 
L 594 3500 
L 594 4494 
L 1172 4494 
z
" transform="scale(0.015625)"/>
       <path id="DejaVuSans-69" d="M 603 3500 
L 1178 3500 
L 1178 0 
L 603 0 
L 603 3500 
z
M 603 4863 
L 1178 4863 
L 1178 4134 
L 603 4134 
L 603 4863 
z
" transform="scale(0.015625)"/>
       <path id="DejaVuSans-6d" d="M 3328 2828 
Q 3544 3216 3844 3400 
Q 4144 3584 4550 3584 
Q 5097 3584 5394 3201 
Q 5691 2819 5691 2113 
L 5691 0 
L 5113 0 
L 5113 2094 
Q 5113 2597 4934 2840 
Q 4756 3084 4391 3084 
Q 3944 3084 3684 2787 
Q 3425 2491 3425 1978 
L 3425 0 
L 2847 0 
L 2847 2094 
Q 2847 2600 2669 2842 
Q 2491 3084 2119 3084 
Q 1678 3084 1418 2786 
Q 1159 2488 1159 1978 
L 1159 0 
L 581 0 
L 581 3500 
L 1159 3500 
L 1159 2956 
Q 1356 3278 1631 3431 
Q 1906 3584 2284 3584 
Q 2666 3584 2933 3390 
Q 3200 3197 3328 2828 
z
" transform="scale(0.015625)"/>
       <path id="DejaVuSans-65" d="M 3597 1894 
L 3597 1613 
L 953 1613 
Q 991 1019 1311 708 
Q 1631 397 2203 397 
Q 2534 397 2845 478 
Q 3156 559 3463 722 
L 3463 178 
Q 3153 47 2828 -22 
Q 2503 -91 2169 -91 
Q 1331 -91 842 396 
Q 353 884 353 1716 
Q 353 2575 817 3079 
Q 1281 3584 2069 3584 
Q 2775 3584 3186 3129 
Q 3597 2675 3597 1894 
z
M 3022 2063 
Q 3016 2534 2758 2815 
Q 2500 3097 2075 3097 
Q 1594 3097 1305 2825 
Q 1016 2553 972 2059 
L 3022 2063 
z
" transform="scale(0.015625)"/>
       <path id="DejaVuSans-2c" d="M 750 794 
L 1409 794 
L 1409 256 
L 897 -744 
L 494 -744 
L 750 256 
L 750 794 
z
" transform="scale(0.015625)"/>
       <path id="DejaVuSans-64" d="M 2906 2969 
L 2906 4863 
L 3481 4863 
L 3481 0 
L 2906 0 
L 2906 525 
Q 2725 213 2448 61 
Q 2172 -91 1784 -91 
Q 1150 -91 751 415 
Q 353 922 353 1747 
Q 353 2572 751 3078 
Q 1150 3584 1784 3584 
Q 2172 3584 2448 3432 
Q 2725 3281 2906 2969 
z
M 947 1747 
Q 947 1113 1208 752 
Q 1469 391 1925 391 
Q 2381 391 2643 752 
Q 2906 1113 2906 1747 
Q 2906 2381 2643 2742 
Q 2381 3103 1925 3103 
Q 1469 3103 1208 2742 
Q 947 2381 947 1747 
z
" transform="scale(0.015625)"/>
       <path id="DejaVuSans-6e" d="M 3513 2113 
L 3513 0 
L 2938 0 
L 2938 2094 
Q 2938 2591 2744 2837 
Q 2550 3084 2163 3084 
Q 1697 3084 1428 2787 
Q 1159 2491 1159 1978 
L 1159 0 
L 581 0 
L 581 3500 
L 1159 3500 
L 1159 2956 
Q 1366 3272 1645 3428 
Q 1925 3584 2291 3584 
Q 2894 3584 3203 3211 
Q 3513 2838 3513 2113 
z
" transform="scale(0.015625)"/>
       <path id="DejaVuSans-6f" d="M 1959 3097 
Q 1497 3097 1228 2736 
Q 959 2375 959 1747 
Q 959 1119 1226 758 
Q 1494 397 1959 397 
Q 2419 397 2687 759 
Q 2956 1122 2956 1747 
Q 2956 2369 2687 2733 
Q 2419 3097 1959 3097 
z
M 1959 3584 
Q 2709 3584 3137 3096 
Q 3566 2609 3566 1747 
Q 3566 888 3137 398 
Q 2709 -91 1959 -91 
Q 1206 -91 779 398 
Q 353 888 353 1747 
Q 353 2609 779 3096 
Q 1206 3584 1959 3584 
z
" transform="scale(0.015625)"/>
       <path id="DejaVuSans-66" d="M 2375 4863 
L 2375 4384 
L 1825 4384 
Q 1516 4384 1395 4259 
Q 1275 4134 1275 3809 
L 1275 3500 
L 2222 3500 
L 2222 3053 
L 1275 3053 
L 1275 0 
L 697 0 
L 697 3053 
L 147 3053 
L 147 3500 
L 697 3500 
L 697 3744 
Q 697 4328 969 4595 
Q 1241 4863 1831 4863 
L 2375 4863 
z
" transform="scale(0.015625)"/>
       <path id="DejaVuSans-28" d="M 1984 4856 
Q 1566 4138 1362 3434 
Q 1159 2731 1159 2009 
Q 1159 1288 1364 580 
Q 1569 -128 1984 -844 
L 1484 -844 
Q 1016 -109 783 600 
Q 550 1309 550 2009 
Q 550 2706 781 3412 
Q 1013 4119 1484 4856 
L 1984 4856 
z
" transform="scale(0.015625)"/>
       <path id="DejaVuSans-72" d="M 2631 2963 
Q 2534 3019 2420 3045 
Q 2306 3072 2169 3072 
Q 1681 3072 1420 2755 
Q 1159 2438 1159 1844 
L 1159 0 
L 581 0 
L 581 3500 
L 1159 3500 
L 1159 2956 
Q 1341 3275 1631 3429 
Q 1922 3584 2338 3584 
Q 2397 3584 2469 3576 
Q 2541 3569 2628 3553 
L 2631 2963 
z
" transform="scale(0.015625)"/>
       <path id="DejaVuSans-73" d="M 2834 3397 
L 2834 2853 
Q 2591 2978 2328 3040 
Q 2066 3103 1784 3103 
Q 1356 3103 1142 2972 
Q 928 2841 928 2578 
Q 928 2378 1081 2264 
Q 1234 2150 1697 2047 
L 1894 2003 
Q 2506 1872 2764 1633 
Q 3022 1394 3022 966 
Q 3022 478 2636 193 
Q 2250 -91 1575 -91 
Q 1294 -91 989 -36 
Q 684 19 347 128 
L 347 722 
Q 666 556 975 473 
Q 1284 391 1588 391 
Q 1994 391 2212 530 
Q 2431 669 2431 922 
Q 2431 1156 2273 1281 
Q 2116 1406 1581 1522 
L 1381 1569 
Q 847 1681 609 1914 
Q 372 2147 372 2553 
Q 372 3047 722 3315 
Q 1072 3584 1716 3584 
Q 2034 3584 2315 3537 
Q 2597 3491 2834 3397 
z
" transform="scale(0.015625)"/>
       <path id="DejaVuSans-62" d="M 3116 1747 
Q 3116 2381 2855 2742 
Q 2594 3103 2138 3103 
Q 1681 3103 1420 2742 
Q 1159 2381 1159 1747 
Q 1159 1113 1420 752 
Q 1681 391 2138 391 
Q 2594 391 2855 752 
Q 3116 1113 3116 1747 
z
M 1159 2969 
Q 1341 3281 1617 3432 
Q 1894 3584 2278 3584 
Q 2916 3584 3314 3078 
Q 3713 2572 3713 1747 
Q 3713 922 3314 415 
Q 2916 -91 2278 -91 
Q 1894 -91 1617 61 
Q 1341 213 1159 525 
L 1159 0 
L 581 0 
L 581 4863 
L 1159 4863 
L 1159 2969 
z
" transform="scale(0.015625)"/>
       <path id="DejaVuSans-29" d="M 513 4856 
L 1013 4856 
Q 1481 4119 1714 3412 
Q 1947 2706 1947 2009 
Q 1947 1309 1714 600 
Q 1481 -109 1013 -844 
L 513 -844 
Q 928 -128 1133 580 
Q 1338 1288 1338 2009 
Q 1338 2731 1133 3434 
Q 928 4138 513 4856 
z
" transform="scale(0.015625)"/>
      </defs>
      <use xlink:href="#DejaVuSans-77"/>
      <use xlink:href="#DejaVuSans-61" transform="translate(81.787109 0)"/>
      <use xlink:href="#DejaVuSans-6c" transform="translate(143.066406 0)"/>
      <use xlink:href="#DejaVuSans-6c" transform="translate(170.849609 0)"/>
      <use xlink:href="#DejaVuSans-20" transform="translate(198.632812 0)"/>
      <use xlink:href="#DejaVuSans-74" transform="translate(230.419922 0)"/>
      <use xlink:href="#DejaVuSans-69" transform="translate(269.628906 0)"/>
      <use xlink:href="#DejaVuSans-6d" transform="translate(297.412109 0)"/>
      <use xlink:href="#DejaVuSans-65" transform="translate(394.824219 0)"/>
      <use xlink:href="#DejaVuSans-2c" transform="translate(456.347656 0)"/>
      <use xlink:href="#DejaVuSans-20" transform="translate(488.134766 0)"/>
      <use xlink:href="#DejaVuSans-6d" transform="translate(519.921875 0)"/>
      <use xlink:href="#DejaVuSans-65" transform="translate(617.333984 0)"/>
      <use xlink:href="#DejaVuSans-64" transform="translate(678.857422 0)"/>
      <use xlink:href="#DejaVuSans-69" transform="translate(742.333984 0)"/>
      <use xlink:href="#DejaVuSans-61" transform="translate(770.117188 0)"/>
      <use xlink:href="#DejaVuSans-6e" transform="translate(831.396484 0)"/>
      <use xlink:href="#DejaVuSans-20" transform="translate(894.775391 0)"/>
      <use xlink:href="#DejaVuSans-6f" transform="translate(926.5625 0)"/>
      <use xlink:href="#DejaVuSans-66" transform="translate(987.744141 0)"/>
      <use xlink:href="#DejaVuSans-20" transform="translate(1022.949219 0)"/>
      <use xlink:href="#DejaVuSans-35" transform="translate(1054.736328 0)"/>
      <use xlink:href="#DejaVuSans-20" transform="translate(1118.359375 0)"/>
      <use xlink:href="#DejaVuSans-28" transform="translate(1150.146484 0)"/>
      <use xlink:href="#DejaVuSans-6c" transform="translate(1189.160156 0)"/>
      <use xlink:href="#DejaVuSans-6f" transform="translate(1216.943359 0)"/>
      <use xlink:href="#DejaVuSans-77" transform="translate(1278.125 0)"/>
      <use xlink:href="#DejaVuSans-65" transform="translate(1359.912109 0)"/>
      <use xlink:href="#DejaVuSans-72" transform="translate(1421.435547 0)"/>
      <use xlink:href="#DejaVuSans-20" transform="translate(1462.548828 0)"/>
      <use xlink:href="#DejaVuSans-69" transform="translate(1494.335938 0)"/>
      <use xlink:href="#DejaVuSans-73" transform="translate(1522.119141 0)"/>
      <use xlink:href="#DejaVuSans-20" transform="translate(1574.21875 0)"/>
      <use xlink:href="#DejaVuSans-62" transform="translate(1606.005859 0)"/>
      <use xlink:href="#DejaVuSans-65" transform="translate(1669.482422 0)"/>
      <use xlink:href="#DejaVuSans-74" transform="translate(1731.005859 0)"/>
      <use xlink:href="#DejaVuSans-74" transform="translate(1770.214844 0)"/>
      <use xlink:href="#DejaVuSans-65" transform="translate(1809.423828 0)"/>
      <use xlink:href="#DejaVuSans-72" transform="translate(1870.947266 0)"/>
      <use xlink:href="#DejaVuSans-29" transform="translate(1912.060547 0)"/>
     </g>
    </g>
   </g>
   <g id="matplotlib.axis_2">
    <g id="ytick_1">
     <g id="line2d_17">
      <defs>
       <path id="m848e17abc1" d="M 0 0 
L -3.5 0 
" style="stroke: #e6edf3; stroke-width: 0.8"/>
      </defs>
      <g>
       <use xlink:href="#m848e17abc1" x="177.310938" y="33.935901" style="fill: #e6edf3; stroke: #e6edf3; stroke-width: 0.8"/>
      </g>
     </g>
     <g id="text_10">
      <!-- full 1080p H.264, 1 thread -->
      <g style="fill: #e6edf3" transform="translate(38.460938 37.73512) scale(0.1 -0.1)">
       <defs>
        <path id="DejaVuSans-75" d="M 544 1381 
L 544 3500 
L 1119 3500 
L 1119 1403 
Q 1119 906 1312 657 
Q 1506 409 1894 409 
Q 2359 409 2629 706 
Q 2900 1003 2900 1516 
L 2900 3500 
L 3475 3500 
L 3475 0 
L 2900 0 
L 2900 538 
Q 2691 219 2414 64 
Q 2138 -91 1772 -91 
Q 1169 -91 856 284 
Q 544 659 544 1381 
z
M 1991 3584 
L 1991 3584 
z
" transform="scale(0.015625)"/>
        <path id="DejaVuSans-38" d="M 2034 2216 
Q 1584 2216 1326 1975 
Q 1069 1734 1069 1313 
Q 1069 891 1326 650 
Q 1584 409 2034 409 
Q 2484 409 2743 651 
Q 3003 894 3003 1313 
Q 3003 1734 2745 1975 
Q 2488 2216 2034 2216 
z
M 1403 2484 
Q 997 2584 770 2862 
Q 544 3141 544 3541 
Q 544 4100 942 4425 
Q 1341 4750 2034 4750 
Q 2731 4750 3128 4425 
Q 3525 4100 3525 3541 
Q 3525 3141 3298 2862 
Q 3072 2584 2669 2484 
Q 3125 2378 3379 2068 
Q 3634 1759 3634 1313 
Q 3634 634 3220 271 
Q 2806 -91 2034 -91 
Q 1263 -91 848 271 
Q 434 634 434 1313 
Q 434 1759 690 2068 
Q 947 2378 1403 2484 
z
M 1172 3481 
Q 1172 3119 1398 2916 
Q 1625 2713 2034 2713 
Q 2441 2713 2670 2916 
Q 2900 3119 2900 3481 
Q 2900 3844 2670 4047 
Q 2441 4250 2034 4250 
Q 1625 4250 1398 4047 
Q 1172 3844 1172 3481 
z
" transform="scale(0.015625)"/>
        <path id="DejaVuSans-70" d="M 1159 525 
L 1159 -1331 
L 581 -1331 
L 581 3500 
L 1159 3500 
L 1159 2969 
Q 1341 3281 1617 3432 
Q 1894 3584 2278 3584 
Q 2916 3584 3314 3078 
Q 3713 2572 3713 1747 
Q 3713 922 3314 415 
Q 2916 -91 2278 -91 
Q 1894 -91 1617 61 
Q 1341 213 1159 525 
z
M 3116 1747 
Q 3116 2381 2855 2742 
Q 2594 3103 2138 3103 
Q 1681 3103 1420 2742 
Q 1159 2381 1159 1747 
Q 1159 1113 1420 752 
Q 1681 391 2138 391 
Q 2594 391 2855 752 
Q 3116 1113 3116 1747 
z
" transform="scale(0.015625)"/>
        <path id="DejaVuSans-48" d="M 628 4666 
L 1259 4666 
L 1259 2753 
L 3553 2753 
L 3553 4666 
L 4184 4666 
L 4184 0 
L 3553 0 
L 3553 2222 
L 1259 2222 
L 1259 0 
L 628 0 
L 628 4666 
z
" transform="scale(0.015625)"/>
        <path id="DejaVuSans-2e" d="M 684 794 
L 1344 794 
L 1344 0 
L 684 0 
L 684 794 
z
" transform="scale(0.015625)"/>
        <path id="DejaVuSans-68" d="M 3513 2113 
L 3513 0 
L 2938 0 
L 2938 2094 
Q 2938 2591 2744 2837 
Q 2550 3084 2163 3084 
Q 1697 3084 1428 2787 
Q 1159 2491 1159 1978 
L 1159 0 
L 581 0 
L 581 4863 
L 1159 4863 
L 1159 2956 
Q 1366 3272 1645 3428 
Q 1925 3584 2291 3584 
Q 2894 3584 3203 3211 
Q 3513 2838 3513 2113 
z
" transform="scale(0.015625)"/>
       </defs>
       <use xlink:href="#DejaVuSans-66"/>
       <use xlink:href="#DejaVuSans-75" transform="translate(35.205078 0)"/>
       <use xlink:href="#DejaVuSans-6c" transform="translate(98.583984 0)"/>
       <use xlink:href="#DejaVuSans-6c" transform="translate(126.367188 0)"/>
       <use xlink:href="#DejaVuSans-20" transform="translate(154.150391 0)"/>
       <use xlink:href="#DejaVuSans-31" transform="translate(185.9375 0)"/>
       <use xlink:href="#DejaVuSans-30" transform="translate(249.560547 0)"/>
       <use xlink:href="#DejaVuSans-38" transform="translate(313.183594 0)"/>
       <use xlink:href="#DejaVuSans-30" transform="translate(376.806641 0)"/>
       <use xlink:href="#DejaVuSans-70" transform="translate(440.429688 0)"/>
       <use xlink:href="#DejaVuSans-20" transform="translate(503.90625 0)"/>
       <use xlink:href="#DejaVuSans-48" transform="translate(535.693359 0)"/>
       <use xlink:href="#DejaVuSans-2e" transform="translate(609.138672 0)"/>
       <use xlink:href="#DejaVuSans-32" transform="translate(640.925781 0)"/>
       <use xlink:href="#DejaVuSans-36" transform="translate(704.548828 0)"/>
       <use xlink:href="#DejaVuSans-34" transform="translate(768.171875 0)"/>
       <use xlink:href="#DejaVuSans-2c" transform="translate(831.794922 0)"/>
       <use xlink:href="#DejaVuSans-20" transform="translate(863.582031 0)"/>
       <use xlink:href="#DejaVuSans-31" transform="translate(895.369141 0)"/>
       <use xlink:href="#DejaVuSans-20" transform="translate(958.992188 0)"/>
       <use xlink:href="#DejaVuSans-74" transform="translate(990.779297 0)"/>
       <use xlink:href="#DejaVuSans-68" transform="translate(1029.988281 0)"/>
       <use xlink:href="#DejaVuSans-72" transform="translate(1093.367188 0)"/>
       <use xlink:href="#DejaVuSans-65" transform="translate(1132.230469 0)"/>
       <use xlink:href="#DejaVuSans-61" transform="translate(1193.753906 0)"/>
       <use xlink:href="#DejaVuSans-64" transform="translate(1255.033203 0)"/>
      </g>
     </g>
    </g>
    <g id="ytick_2">
     <g id="line2d_18">
      <g>
       <use xlink:href="#m848e17abc1" x="177.310938" y="68.748272" style="fill: #e6edf3; stroke: #e6edf3; stroke-width: 0.8"/>
      </g>
     </g>
     <g id="text_11">
      <!-- full 1080p H.264, auto threads -->
      <g style="fill: #e6edf3" transform="translate(17.109375 72.547491) scale(0.1 -0.1)">
       <use xlink:href="#DejaVuSans-66"/>
       <use xlink:href="#DejaVuSans-75" transform="translate(35.205078 0)"/>
       <use xlink:href="#DejaVuSans-6c" transform="translate(98.583984 0)"/>
       <use xlink:href="#DejaVuSans-6c" transform="translate(126.367188 0)"/>
       <use xlink:href="#DejaVuSans-20" transform="translate(154.150391 0)"/>
       <use xlink:href="#DejaVuSans-31" transform="translate(185.9375 0)"/>
       <use xlink:href="#DejaVuSans-30" transform="translate(249.560547 0)"/>
       <use xlink:href="#DejaVuSans-38" transform="translate(313.183594 0)"/>
       <use xlink:href="#DejaVuSans-30" transform="translate(376.806641 0)"/>
       <use xlink:href="#DejaVuSans-70" transform="translate(440.429688 0)"/>
       <use xlink:href="#DejaVuSans-20" transform="translate(503.90625 0)"/>
       <use xlink:href="#DejaVuSans-48" transform="translate(535.693359 0)"/>
       <use xlink:href="#DejaVuSans-2e" transform="translate(609.138672 0)"/>
       <use xlink:href="#DejaVuSans-32" transform="translate(640.925781 0)"/>
       <use xlink:href="#DejaVuSans-36" transform="translate(704.548828 0)"/>
       <use xlink:href="#DejaVuSans-34" transform="translate(768.171875 0)"/>
       <use xlink:href="#DejaVuSans-2c" transform="translate(831.794922 0)"/>
       <use xlink:href="#DejaVuSans-20" transform="translate(863.582031 0)"/>
       <use xlink:href="#DejaVuSans-61" transform="translate(895.369141 0)"/>
       <use xlink:href="#DejaVuSans-75" transform="translate(956.648438 0)"/>
       <use xlink:href="#DejaVuSans-74" transform="translate(1020.027344 0)"/>
       <use xlink:href="#DejaVuSans-6f" transform="translate(1059.236328 0)"/>
       <use xlink:href="#DejaVuSans-20" transform="translate(1120.417969 0)"/>
       <use xlink:href="#DejaVuSans-74" transform="translate(1152.205078 0)"/>
       <use xlink:href="#DejaVuSans-68" transform="translate(1191.414062 0)"/>
       <use xlink:href="#DejaVuSans-72" transform="translate(1254.792969 0)"/>
       <use xlink:href="#DejaVuSans-65" transform="translate(1293.65625 0)"/>
       <use xlink:href="#DejaVuSans-61" transform="translate(1355.179688 0)"/>
       <use xlink:href="#DejaVuSans-64" transform="translate(1416.458984 0)"/>
       <use xlink:href="#DejaVuSans-73" transform="translate(1479.935547 0)"/>
      </g>
     </g>
    </g>
    <g id="ytick_3">
     <g id="line2d_19">
      <g>
       <use xlink:href="#m848e17abc1" x="177.310938" y="103.560643" style="fill: #e6edf3; stroke: #e6edf3; stroke-width: 0.8"/>
      </g>
     </g>
     <g id="text_12">
      <!-- full 1080p HEVC, auto threads -->
      <g style="fill: #e6edf3" transform="translate(19.057813 107.359862) scale(0.1 -0.1)">
       <defs>
        <path id="DejaVuSans-45" d="M 628 4666 
L 3578 4666 
L 3578 4134 
L 1259 4134 
L 1259 2753 
L 3481 2753 
L 3481 2222 
L 1259 2222 
L 1259 531 
L 3634 531 
L 3634 0 
L 628 0 
L 628 4666 
z
" transform="scale(0.015625)"/>
        <path id="DejaVuSans-56" d="M 1831 0 
L 50 4666 
L 709 4666 
L 2188 738 
L 3669 4666 
L 4325 4666 
L 2547 0 
L 1831 0 
z
" transform="scale(0.015625)"/>
        <path id="DejaVuSans-43" d="M 4122 4306 
L 4122 3641 
Q 3803 3938 3442 4084 
Q 3081 4231 2675 4231 
Q 1875 4231 1450 3742 
Q 1025 3253 1025 2328 
Q 1025 1406 1450 917 
Q 1875 428 2675 428 
Q 3081 428 3442 575 
Q 3803 722 4122 1019 
L 4122 359 
Q 3791 134 3420 21 
Q 3050 -91 2638 -91 
Q 1578 -91 968 557 
Q 359 1206 359 2328 
Q 359 3453 968 4101 
Q 1578 4750 2638 4750 
Q 3056 4750 3426 4639 
Q 3797 4528 4122 4306 
z
" transform="scale(0.015625)"/>
       </defs>
       <use xlink:href="#DejaVuSans-66"/>
       <use xlink:href="#DejaVuSans-75" transform="translate(35.205078 0)"/>
       <use xlink:href="#DejaVuSans-6c" transform="translate(98.583984 0)"/>
       <use xlink:href="#DejaVuSans-6c" transform="translate(126.367188 0)"/>
       <use xlink:href="#DejaVuSans-20" transform="translate(154.150391 0)"/>
       <use xlink:href="#DejaVuSans-31" transform="translate(185.9375 0)"/>
       <use xlink:href="#DejaVuSans-30" transform="translate(249.560547 0)"/>
       <use xlink:href="#DejaVuSans-38" transform="translate(313.183594 0)"/>
       <use xlink:href="#DejaVuSans-30" transform="translate(376.806641 0)"/>
       <use xlink:href="#DejaVuSans-70" transform="translate(440.429688 0)"/>
       <use xlink:href="#DejaVuSans-20" transform="translate(503.90625 0)"/>
       <use xlink:href="#DejaVuSans-48" transform="translate(535.693359 0)"/>
       <use xlink:href="#DejaVuSans-45" transform="translate(610.888672 0)"/>
       <use xlink:href="#DejaVuSans-56" transform="translate(674.072266 0)"/>
       <use xlink:href="#DejaVuSans-43" transform="translate(742.480469 0)"/>
       <use xlink:href="#DejaVuSans-2c" transform="translate(812.304688 0)"/>
       <use xlink:href="#DejaVuSans-20" transform="translate(844.091797 0)"/>
       <use xlink:href="#DejaVuSans-61" transform="translate(875.878906 0)"/>
       <use xlink:href="#DejaVuSans-75" transform="translate(937.158203 0)"/>
       <use xlink:href="#DejaVuSans-74" transform="translate(1000.537109 0)"/>
       <use xlink:href="#DejaVuSans-6f" transform="translate(1039.746094 0)"/>
       <use xlink:href="#DejaVuSans-20" transform="translate(1100.927734 0)"/>
       <use xlink:href="#DejaVuSans-74" transform="translate(1132.714844 0)"/>
       <use xlink:href="#DejaVuSans-68" transform="translate(1171.923828 0)"/>
       <use xlink:href="#DejaVuSans-72" transform="translate(1235.302734 0)"/>
       <use xlink:href="#DejaVuSans-65" transform="translate(1274.166016 0)"/>
       <use xlink:href="#DejaVuSans-61" transform="translate(1335.689453 0)"/>
       <use xlink:href="#DejaVuSans-64" transform="translate(1396.96875 0)"/>
       <use xlink:href="#DejaVuSans-73" transform="translate(1460.445312 0)"/>
      </g>
     </g>
    </g>
    <g id="ytick_4">
     <g id="line2d_20">
      <g>
       <use xlink:href="#m848e17abc1" x="177.310938" y="138.373014" style="fill: #e6edf3; stroke: #e6edf3; stroke-width: 0.8"/>
      </g>
     </g>
     <g id="text_13">
      <!-- full 720p H.264, 1 thread -->
      <g style="fill: #e6edf3" transform="translate(44.823438 142.172233) scale(0.1 -0.1)">
       <use xlink:href="#DejaVuSans-66"/>
       <use xlink:href="#DejaVuSans-75" transform="translate(35.205078 0)"/>
       <use xlink:href="#DejaVuSans-6c" transform="translate(98.583984 0)"/>
       <use xlink:href="#DejaVuSans-6c" transform="translate(126.367188 0)"/>
       <use xlink:href="#DejaVuSans-20" transform="translate(154.150391 0)"/>
       <use xlink:href="#DejaVuSans-37" transform="translate(185.9375 0)"/>
       <use xlink:href="#DejaVuSans-32" transform="translate(249.560547 0)"/>
       <use xlink:href="#DejaVuSans-30" transform="translate(313.183594 0)"/>
       <use xlink:href="#DejaVuSans-70" transform="translate(376.806641 0)"/>
       <use xlink:href="#DejaVuSans-20" transform="translate(440.283203 0)"/>
       <use xlink:href="#DejaVuSans-48" transform="translate(472.070312 0)"/>
       <use xlink:href="#DejaVuSans-2e" transform="translate(545.515625 0)"/>
       <use xlink:href="#DejaVuSans-32" transform="translate(577.302734 0)"/>
       <use xlink:href="#DejaVuSans-36" transform="translate(640.925781 0)"/>
       <use xlink:href="#DejaVuSans-34" transform="translate(704.548828 0)"/>
       <use xlink:href="#DejaVuSans-2c" transform="translate(768.171875 0)"/>
       <use xlink:href="#DejaVuSans-20" transform="translate(799.958984 0)"/>
       <use xlink:href="#DejaVuSans-31" transform="translate(831.746094 0)"/>
       <use xlink:href="#DejaVuSans-20" transform="translate(895.369141 0)"/>
       <use xlink:href="#DejaVuSans-74" transform="translate(927.15625 0)"/>
       <use xlink:href="#DejaVuSans-68" transform="translate(966.365234 0)"/>
       <use xlink:href="#DejaVuSans-72" transform="translate(1029.744141 0)"/>
       <use xlink:href="#DejaVuSans-65" transform="translate(1068.607422 0)"/>
       <use xlink:href="#DejaVuSans-61" transform="translate(1130.130859 0)"/>
       <use xlink:href="#DejaVuSans-64" transform="translate(1191.410156 0)"/>
      </g>
     </g>
    </g>
    <g id="ytick_5">
     <g id="line2d_21">
      <g>
       <use xlink:href="#m848e17abc1" x="177.310938" y="173.185386" style="fill: #e6edf3; stroke: #e6edf3; stroke-width: 0.8"/>
      </g>
     </g>
     <g id="text_14">
      <!-- 1080p → 256×144, 1 thread -->
      <g style="fill: #e6edf3" transform="translate(28.551563 176.984604) scale(0.1 -0.1)">
       <defs>
        <path id="DejaVuSans-2192" d="M 5050 2147 
L 5050 1866 
L 3822 638 
L 3447 1013 
L 4175 1741 
L 366 1741 
L 366 2272 
L 4175 2272 
L 3447 3000 
L 3822 3375 
L 5050 2147 
z
" transform="scale(0.015625)"/>
        <path id="DejaVuSans-d7" d="M 4488 3438 
L 3059 2003 
L 4488 575 
L 4116 197 
L 2681 1631 
L 1247 197 
L 878 575 
L 2303 2003 
L 878 3438 
L 1247 3816 
L 2681 2381 
L 4116 3816 
L 4488 3438 
z
" transform="scale(0.015625)"/>
       </defs>
       <use xlink:href="#DejaVuSans-31"/>
       <use xlink:href="#DejaVuSans-30" transform="translate(63.623047 0)"/>
       <use xlink:href="#DejaVuSans-38" transform="translate(127.246094 0)"/>
       <use xlink:href="#DejaVuSans-30" transform="translate(190.869141 0)"/>
       <use xlink:href="#DejaVuSans-70" transform="translate(254.492188 0)"/>
       <use xlink:href="#DejaVuSans-20" transform="translate(317.96875 0)"/>
       <use xlink:href="#DejaVuSans-2192" transform="translate(349.755859 0)"/>
       <use xlink:href="#DejaVuSans-20" transform="translate(433.544922 0)"/>
       <use xlink:href="#DejaVuSans-32" transform="translate(465.332031 0)"/>
       <use xlink:href="#DejaVuSans-35" transform="translate(528.955078 0)"/>
       <use xlink:href="#DejaVuSans-36" transform="translate(592.578125 0)"/>
       <use xlink:href="#DejaVuSans-d7" transform="translate(656.201172 0)"/>
       <use xlink:href="#DejaVuSans-31" transform="translate(739.990234 0)"/>
       <use xlink:href="#DejaVuSans-34" transform="translate(803.613281 0)"/>
       <use xlink:href="#DejaVuSans-34" transform="translate(867.236328 0)"/>
       <use xlink:href="#DejaVuSans-2c" transform="translate(930.859375 0)"/>
       <use xlink:href="#DejaVuSans-20" transform="translate(962.646484 0)"/>
       <use xlink:href="#DejaVuSans-31" transform="translate(994.433594 0)"/>
       <use xlink:href="#DejaVuSans-20" transform="translate(1058.056641 0)"/>
       <use xlink:href="#DejaVuSans-74" transform="translate(1089.84375 0)"/>
       <use xlink:href="#DejaVuSans-68" transform="translate(1129.052734 0)"/>
       <use xlink:href="#DejaVuSans-72" transform="translate(1192.431641 0)"/>
       <use xlink:href="#DejaVuSans-65" transform="translate(1231.294922 0)"/>
       <use xlink:href="#DejaVuSans-61" transform="translate(1292.818359 0)"/>
       <use xlink:href="#DejaVuSans-64" transform="translate(1354.097656 0)"/>
      </g>
     </g>
    </g>
    <g id="ytick_6">
     <g id="line2d_22">
      <g>
       <use xlink:href="#m848e17abc1" x="177.310938" y="207.997757" style="fill: #e6edf3; stroke: #e6edf3; stroke-width: 0.8"/>
      </g>
     </g>
     <g id="text_15">
      <!-- 1080p → 256×144, auto threads -->
      <g style="fill: #e6edf3" transform="translate(7.2 211.796975) scale(0.1 -0.1)">
       <use xlink:href="#DejaVuSans-31"/>
       <use xlink:href="#DejaVuSans-30" transform="translate(63.623047 0)"/>
       <use xlink:href="#DejaVuSans-38" transform="translate(127.246094 0)"/>
       <use xlink:href="#DejaVuSans-30" transform="translate(190.869141 0)"/>
       <use xlink:href="#DejaVuSans-70" transform="translate(254.492188 0)"/>
       <use xlink:href="#DejaVuSans-20" transform="translate(317.96875 0)"/>
       <use xlink:href="#DejaVuSans-2192" transform="translate(349.755859 0)"/>
       <use xlink:href="#DejaVuSans-20" transform="translate(433.544922 0)"/>
       <use xlink:href="#DejaVuSans-32" transform="translate(465.332031 0)"/>
       <use xlink:href="#DejaVuSans-35" transform="translate(528.955078 0)"/>
       <use xlink:href="#DejaVuSans-36" transform="translate(592.578125 0)"/>
       <use xlink:href="#DejaVuSans-d7" transform="translate(656.201172 0)"/>
       <use xlink:href="#DejaVuSans-31" transform="translate(739.990234 0)"/>
       <use xlink:href="#DejaVuSans-34" transform="translate(803.613281 0)"/>
       <use xlink:href="#DejaVuSans-34" transform="translate(867.236328 0)"/>
       <use xlink:href="#DejaVuSans-2c" transform="translate(930.859375 0)"/>
       <use xlink:href="#DejaVuSans-20" transform="translate(962.646484 0)"/>
       <use xlink:href="#DejaVuSans-61" transform="translate(994.433594 0)"/>
       <use xlink:href="#DejaVuSans-75" transform="translate(1055.712891 0)"/>
       <use xlink:href="#DejaVuSans-74" transform="translate(1119.091797 0)"/>
       <use xlink:href="#DejaVuSans-6f" transform="translate(1158.300781 0)"/>
       <use xlink:href="#DejaVuSans-20" transform="translate(1219.482422 0)"/>
       <use xlink:href="#DejaVuSans-74" transform="translate(1251.269531 0)"/>
       <use xlink:href="#DejaVuSans-68" transform="translate(1290.478516 0)"/>
       <use xlink:href="#DejaVuSans-72" transform="translate(1353.857422 0)"/>
       <use xlink:href="#DejaVuSans-65" transform="translate(1392.720703 0)"/>
       <use xlink:href="#DejaVuSans-61" transform="translate(1454.244141 0)"/>
       <use xlink:href="#DejaVuSans-64" transform="translate(1515.523438 0)"/>
       <use xlink:href="#DejaVuSans-73" transform="translate(1579 0)"/>
      </g>
     </g>
    </g>
    <g id="ytick_7">
     <g id="line2d_23">
      <g>
       <use xlink:href="#m848e17abc1" x="177.310938" y="242.810128" style="fill: #e6edf3; stroke: #e6edf3; stroke-width: 0.8"/>
      </g>
     </g>
     <g id="text_16">
      <!-- 5 s window @ 15 s -->
      <g style="fill: #e6edf3" transform="translate(76.975 246.609347) scale(0.1 -0.1)">
       <defs>
        <path id="DejaVuSans-40" d="M 2381 1678 
Q 2381 1231 2603 976 
Q 2825 722 3213 722 
Q 3597 722 3817 978 
Q 4038 1234 4038 1678 
Q 4038 2116 3813 2373 
Q 3588 2631 3206 2631 
Q 2828 2631 2604 2375 
Q 2381 2119 2381 1678 
z
M 4084 744 
Q 3897 503 3655 389 
Q 3413 275 3091 275 
Q 2553 275 2217 664 
Q 1881 1053 1881 1678 
Q 1881 2303 2218 2693 
Q 2556 3084 3091 3084 
Q 3413 3084 3656 2967 
Q 3900 2850 4084 2613 
L 4084 3022 
L 4531 3022 
L 4531 722 
Q 4988 791 5245 1139 
Q 5503 1488 5503 2041 
Q 5503 2375 5404 2669 
Q 5306 2963 5106 3213 
Q 4781 3622 4314 3839 
Q 3847 4056 3297 4056 
Q 2913 4056 2559 3954 
Q 2206 3853 1906 3653 
Q 1416 3334 1139 2817 
Q 863 2300 863 1697 
Q 863 1200 1042 765 
Q 1222 331 1563 0 
Q 1891 -325 2322 -495 
Q 2753 -666 3244 -666 
Q 3647 -666 4036 -530 
Q 4425 -394 4750 -141 
L 5031 -488 
Q 4641 -791 4180 -952 
Q 3719 -1113 3244 -1113 
Q 2666 -1113 2153 -908 
Q 1641 -703 1241 -313 
Q 841 78 631 592 
Q 422 1106 422 1697 
Q 422 2266 634 2781 
Q 847 3297 1241 3688 
Q 1644 4084 2172 4295 
Q 2700 4506 3291 4506 
Q 3953 4506 4520 4234 
Q 5088 3963 5472 3463 
Q 5706 3156 5829 2797 
Q 5953 2438 5953 2053 
Q 5953 1231 5456 756 
Q 4959 281 4084 263 
L 4084 744 
z
" transform="scale(0.015625)"/>
       </defs>
       <use xlink:href="#DejaVuSans-35"/>
       <use xlink:href="#DejaVuSans-20" transform="translate(63.623047 0)"/>
       <use xlink:href="#DejaVuSans-73" transform="translate(95.410156 0)"/>
       <use xlink:href="#DejaVuSans-20" transform="translate(147.509766 0)"/>
       <use xlink:href="#DejaVuSans-77" transform="translate(179.296875 0)"/>
       <use xlink:href="#DejaVuSans-69" transform="translate(261.083984 0)"/>
       <use xlink:href="#DejaVuSans-6e" transform="translate(288.867188 0)"/>
       <use xlink:href="#DejaVuSans-64" transform="translate(352.246094 0)"/>
       <use xlink:href="#DejaVuSans-6f" transform="translate(415.722656 0)"/>
       <use xlink:href="#DejaVuSans-77" transform="translate(476.904297 0)"/>
       <use xlink:href="#DejaVuSans-20" transform="translate(558.691406 0)"/>
       <use xlink:href="#DejaVuSans-40" transform="translate(590.478516 0)"/>
       <use xlink:href="#DejaVuSans-20" transform="translate(690.478516 0)"/>
       <use xlink:href="#DejaVuSans-31" transform="translate(722.265625 0)"/>
       <use xlink:href="#DejaVuSans-35" transform="translate(785.888672 0)"/>
       <use xlink:href="#DejaVuSans-20" transform="translate(849.511719 0)"/>
       <use xlink:href="#DejaVuSans-73" transform="translate(881.298828 0)"/>
      </g>
     </g>
    </g>
    <g id="ytick_8">
     <g id="line2d_24">
      <g>
       <use xlink:href="#m848e17abc1" x="177.310938" y="277.622499" style="fill: #e6edf3; stroke: #e6edf3; stroke-width: 0.8"/>
      </g>
     </g>
     <g id="text_17">
      <!-- video + audio -->
      <g style="fill: #e6edf3" transform="translate(100.546875 281.421718) scale(0.1 -0.1)">
       <defs>
        <path id="DejaVuSans-76" d="M 191 3500 
L 800 3500 
L 1894 563 
L 2988 3500 
L 3597 3500 
L 2284 0 
L 1503 0 
L 191 3500 
z
" transform="scale(0.015625)"/>
        <path id="DejaVuSans-2b" d="M 2944 4013 
L 2944 2272 
L 4684 2272 
L 4684 1741 
L 2944 1741 
L 2944 0 
L 2419 0 
L 2419 1741 
L 678 1741 
L 678 2272 
L 2419 2272 
L 2419 4013 
L 2944 4013 
z
" transform="scale(0.015625)"/>
       </defs>
       <use xlink:href="#DejaVuSans-76"/>
       <use xlink:href="#DejaVuSans-69" transform="translate(59.179688 0)"/>
       <use xlink:href="#DejaVuSans-64" transform="translate(86.962891 0)"/>
       <use xlink:href="#DejaVuSans-65" transform="translate(150.439453 0)"/>
       <use xlink:href="#DejaVuSans-6f" transform="translate(211.962891 0)"/>
       <use xlink:href="#DejaVuSans-20" transform="translate(273.144531 0)"/>
       <use xlink:href="#DejaVuSans-2b" transform="translate(304.931641 0)"/>
       <use xlink:href="#DejaVuSans-20" transform="translate(388.720703 0)"/>
       <use xlink:href="#DejaVuSans-61" transform="translate(420.507812 0)"/>
       <use xlink:href="#DejaVuSans-75" transform="translate(481.787109 0)"/>
       <use xlink:href="#DejaVuSans-64" transform="translate(545.166016 0)"/>
       <use xlink:href="#DejaVuSans-69" transform="translate(608.642578 0)"/>
       <use xlink:href="#DejaVuSans-6f" transform="translate(636.425781 0)"/>
      </g>
     </g>
    </g>
   </g>
   <g id="patch_3">
    <path d="M 177.310938 304.3584 
L 177.310938 7.2 
" style="fill: none; stroke: #3d444d; stroke-width: 0.8; stroke-linejoin: miter; stroke-linecap: square"/>
   </g>
   <g id="patch_4">
    <path d="M 177.310938 304.3584 
L 657.190938 304.3584 
" style="fill: none; stroke: #3d444d; stroke-width: 0.8; stroke-linejoin: miter; stroke-linecap: square"/>
   </g>
   <g id="patch_5">
    <path d="M 177.310938 20.7072 
L 517.552359 20.7072 
L 517.552359 33.935901 
L 177.310938 33.935901 
z
" clip-path="url(#pd478d3fde5)" style="fill: #58a6ff"/>
   </g>
   <g id="patch_6">
    <path d="M 177.310938 55.519571 
L 335.90349 55.519571 
L 335.90349 68.748272 
L 177.310938 68.748272 
z
" clip-path="url(#pd478d3fde5)" style="fill: #58a6ff"/>
   </g>
   <g id="patch_7">
    <path d="M 177.310938 90.331942 
L 332.401249 90.331942 
L 332.401249 103.560643 
L 177.310938 103.560643 
z
" clip-path="url(#pd478d3fde5)" style="fill: #58a6ff"/>
   </g>
   <g id="patch_8">
    <path d="M 177.310938 125.144313 
L 233.630144 125.144313 
L 233.630144 138.373014 
L 177.310938 138.373014 
z
" clip-path="url(#pd478d3fde5)" style="fill: #58a6ff"/>
   </g>
   <g id="patch_9">
    <path d="M 177.310938 159.956685 
L 409.91129 159.956685 
L 409.91129 173.185386 
L 177.310938 173.185386 
z
" clip-path="url(#pd478d3fde5)" style="fill: #58a6ff"/>
   </g>
   <g id="patch_10">
    <path d="M 177.310938 194.769056 
L 215.194257 194.769056 
L 215.194257 207.997757 
L 177.310938 207.997757 
z
" clip-path="url(#pd478d3fde5)" style="fill: #58a6ff"/>
   </g>
   <g id="patch_11">
    <path d="M 177.310938 229.581427 
L 208.209758 229.581427 
L 208.209758 242.810128 
L 177.310938 242.810128 
z
" clip-path="url(#pd478d3fde5)" style="fill: #58a6ff"/>
   </g>
   <g id="patch_12">
    <path d="M 177.310938 264.393798 
L 334.083226 264.393798 
L 334.083226 277.622499 
L 177.310938 277.622499 
z
" clip-path="url(#pd478d3fde5)" style="fill: #58a6ff"/>
   </g>
   <g id="patch_13">
    <path d="M 177.310938 33.935901 
L 525.562383 33.935901 
L 525.562383 47.164602 
L 177.310938 47.164602 
z
" clip-path="url(#pd478d3fde5)" style="fill: #f0883e"/>
   </g>
   <g id="patch_14">
    <path d="M 177.310938 68.748272 
L 336.782782 68.748272 
L 336.782782 81.976973 
L 177.310938 81.976973 
z
" clip-path="url(#pd478d3fde5)" style="fill: #f0883e"/>
   </g>
   <g id="patch_15">
    <path d="M 177.310938 103.560643 
L 332.995397 103.560643 
L 332.995397 116.789344 
L 177.310938 116.789344 
z
" clip-path="url(#pd478d3fde5)" style="fill: #f0883e"/>
   </g>
   <g id="patch_16">
    <path d="M 177.310938 138.373014 
L 233.454848 138.373014 
L 233.454848 151.601715 
L 177.310938 151.601715 
z
" clip-path="url(#pd478d3fde5)" style="fill: #f0883e"/>
   </g>
   <g id="patch_17">
    <path d="M 177.310938 173.185386 
L 583.988904 173.185386 
L 583.988904 186.414087 
L 177.310938 186.414087 
z
" clip-path="url(#pd478d3fde5)" style="fill: #f0883e"/>
   </g>
   <g id="patch_18">
    <path d="M 177.310938 207.997757 
L 399.798993 207.997757 
L 399.798993 221.226458 
L 177.310938 221.226458 
z
" clip-path="url(#pd478d3fde5)" style="fill: #f0883e"/>
   </g>
   <g id="patch_19">
    <path d="M 177.310938 242.810128 
L 209.020329 242.810128 
L 209.020329 256.038829 
L 177.310938 256.038829 
z
" clip-path="url(#pd478d3fde5)" style="fill: #f0883e"/>
   </g>
   <g id="patch_20">
    <path d="M 177.310938 277.622499 
L 338.817646 277.622499 
L 338.817646 290.8512 
L 177.310938 290.8512 
z
" clip-path="url(#pd478d3fde5)" style="fill: #f0883e"/>
   </g>
   <g id="text_18">
    <!-- 5.45 s -->
    <g style="fill: #e6edf3" transform="translate(521.552359 29.804988) scale(0.09 -0.09)">
     <use xlink:href="#DejaVuSans-35"/>
     <use xlink:href="#DejaVuSans-2e" transform="translate(63.623047 0)"/>
     <use xlink:href="#DejaVuSans-34" transform="translate(95.410156 0)"/>
     <use xlink:href="#DejaVuSans-35" transform="translate(159.033203 0)"/>
     <use xlink:href="#DejaVuSans-20" transform="translate(222.65625 0)"/>
     <use xlink:href="#DejaVuSans-73" transform="translate(254.443359 0)"/>
    </g>
   </g>
   <g id="text_19">
    <!-- 2.54 s -->
    <g style="fill: #e6edf3" transform="translate(339.90349 64.617359) scale(0.09 -0.09)">
     <use xlink:href="#DejaVuSans-32"/>
     <use xlink:href="#DejaVuSans-2e" transform="translate(63.623047 0)"/>
     <use xlink:href="#DejaVuSans-35" transform="translate(95.410156 0)"/>
     <use xlink:href="#DejaVuSans-34" transform="translate(159.033203 0)"/>
     <use xlink:href="#DejaVuSans-20" transform="translate(222.65625 0)"/>
     <use xlink:href="#DejaVuSans-73" transform="translate(254.443359 0)"/>
    </g>
   </g>
   <g id="text_20">
    <!-- 2.49 s -->
    <g style="fill: #e6edf3" transform="translate(336.401249 99.42973) scale(0.09 -0.09)">
     <defs>
      <path id="DejaVuSans-39" d="M 703 97 
L 703 672 
Q 941 559 1184 500 
Q 1428 441 1663 441 
Q 2288 441 2617 861 
Q 2947 1281 2994 2138 
Q 2813 1869 2534 1725 
Q 2256 1581 1919 1581 
Q 1219 1581 811 2004 
Q 403 2428 403 3163 
Q 403 3881 828 4315 
Q 1253 4750 1959 4750 
Q 2769 4750 3195 4129 
Q 3622 3509 3622 2328 
Q 3622 1225 3098 567 
Q 2575 -91 1691 -91 
Q 1453 -91 1209 -44 
Q 966 3 703 97 
z
M 1959 2075 
Q 2384 2075 2632 2365 
Q 2881 2656 2881 3163 
Q 2881 3666 2632 3958 
Q 2384 4250 1959 4250 
Q 1534 4250 1286 3958 
Q 1038 3666 1038 3163 
Q 1038 2656 1286 2365 
Q 1534 2075 1959 2075 
z
" transform="scale(0.015625)"/>
     </defs>
     <use xlink:href="#DejaVuSans-32"/>
     <use xlink:href="#DejaVuSans-2e" transform="translate(63.623047 0)"/>
     <use xlink:href="#DejaVuSans-34" transform="translate(95.410156 0)"/>
     <use xlink:href="#DejaVuSans-39" transform="translate(159.033203 0)"/>
     <use xlink:href="#DejaVuSans-20" transform="translate(222.65625 0)"/>
     <use xlink:href="#DejaVuSans-73" transform="translate(254.443359 0)"/>
    </g>
   </g>
   <g id="text_21">
    <!-- 0.90 s -->
    <g style="fill: #e6edf3" transform="translate(237.630144 134.242101) scale(0.09 -0.09)">
     <use xlink:href="#DejaVuSans-30"/>
     <use xlink:href="#DejaVuSans-2e" transform="translate(63.623047 0)"/>
     <use xlink:href="#DejaVuSans-39" transform="translate(95.410156 0)"/>
     <use xlink:href="#DejaVuSans-30" transform="translate(159.033203 0)"/>
     <use xlink:href="#DejaVuSans-20" transform="translate(222.65625 0)"/>
     <use xlink:href="#DejaVuSans-73" transform="translate(254.443359 0)"/>
    </g>
   </g>
   <g id="text_22">
    <!-- 3.73 s -->
    <g style="fill: #e6edf3" transform="translate(413.91129 169.054473) scale(0.09 -0.09)">
     <use xlink:href="#DejaVuSans-33"/>
     <use xlink:href="#DejaVuSans-2e" transform="translate(63.623047 0)"/>
     <use xlink:href="#DejaVuSans-37" transform="translate(95.410156 0)"/>
     <use xlink:href="#DejaVuSans-33" transform="translate(159.033203 0)"/>
     <use xlink:href="#DejaVuSans-20" transform="translate(222.65625 0)"/>
     <use xlink:href="#DejaVuSans-73" transform="translate(254.443359 0)"/>
    </g>
   </g>
   <g id="text_23">
    <!-- 0.61 s -->
    <g style="fill: #e6edf3" transform="translate(219.194257 203.866844) scale(0.09 -0.09)">
     <use xlink:href="#DejaVuSans-30"/>
     <use xlink:href="#DejaVuSans-2e" transform="translate(63.623047 0)"/>
     <use xlink:href="#DejaVuSans-36" transform="translate(95.410156 0)"/>
     <use xlink:href="#DejaVuSans-31" transform="translate(159.033203 0)"/>
     <use xlink:href="#DejaVuSans-20" transform="translate(222.65625 0)"/>
     <use xlink:href="#DejaVuSans-73" transform="translate(254.443359 0)"/>
    </g>
   </g>
   <g id="text_24">
    <!-- 0.50 s -->
    <g style="fill: #e6edf3" transform="translate(212.209758 238.679215) scale(0.09 -0.09)">
     <use xlink:href="#DejaVuSans-30"/>
     <use xlink:href="#DejaVuSans-2e" transform="translate(63.623047 0)"/>
     <use xlink:href="#DejaVuSans-35" transform="translate(95.410156 0)"/>
     <use xlink:href="#DejaVuSans-30" transform="translate(159.033203 0)"/>
     <use xlink:href="#DejaVuSans-20" transform="translate(222.65625 0)"/>
     <use xlink:href="#DejaVuSans-73" transform="translate(254.443359 0)"/>
    </g>
   </g>
   <g id="text_25">
    <!-- 2.51 s -->
    <g style="fill: #e6edf3" transform="translate(338.083226 273.491586) scale(0.09 -0.09)">
     <use xlink:href="#DejaVuSans-32"/>
     <use xlink:href="#DejaVuSans-2e" transform="translate(63.623047 0)"/>
     <use xlink:href="#DejaVuSans-35" transform="translate(95.410156 0)"/>
     <use xlink:href="#DejaVuSans-31" transform="translate(159.033203 0)"/>
     <use xlink:href="#DejaVuSans-20" transform="translate(222.65625 0)"/>
     <use xlink:href="#DejaVuSans-73" transform="translate(254.443359 0)"/>
    </g>
   </g>
   <g id="text_26">
    <!-- 5.58 s -->
    <g style="fill: #e6edf3" transform="translate(529.562383 43.033689) scale(0.09 -0.09)">
     <use xlink:href="#DejaVuSans-35"/>
     <use xlink:href="#DejaVuSans-2e" transform="translate(63.623047 0)"/>
     <use xlink:href="#DejaVuSans-35" transform="translate(95.410156 0)"/>
     <use xlink:href="#DejaVuSans-38" transform="translate(159.033203 0)"/>
     <use xlink:href="#DejaVuSans-20" transform="translate(222.65625 0)"/>
     <use xlink:href="#DejaVuSans-73" transform="translate(254.443359 0)"/>
    </g>
   </g>
   <g id="text_27">
    <!-- 2.56 s -->
    <g style="fill: #e6edf3" transform="translate(340.782782 77.84606) scale(0.09 -0.09)">
     <use xlink:href="#DejaVuSans-32"/>
     <use xlink:href="#DejaVuSans-2e" transform="translate(63.623047 0)"/>
     <use xlink:href="#DejaVuSans-35" transform="translate(95.410156 0)"/>
     <use xlink:href="#DejaVuSans-36" transform="translate(159.033203 0)"/>
     <use xlink:href="#DejaVuSans-20" transform="translate(222.65625 0)"/>
     <use xlink:href="#DejaVuSans-73" transform="translate(254.443359 0)"/>
    </g>
   </g>
   <g id="text_28">
    <!-- 2.50 s -->
    <g style="fill: #e6edf3" transform="translate(336.995397 112.658431) scale(0.09 -0.09)">
     <use xlink:href="#DejaVuSans-32"/>
     <use xlink:href="#DejaVuSans-2e" transform="translate(63.623047 0)"/>
     <use xlink:href="#DejaVuSans-35" transform="translate(95.410156 0)"/>
     <use xlink:href="#DejaVuSans-30" transform="translate(159.033203 0)"/>
     <use xlink:href="#DejaVuSans-20" transform="translate(222.65625 0)"/>
     <use xlink:href="#DejaVuSans-73" transform="translate(254.443359 0)"/>
    </g>
   </g>
   <g id="text_29">
    <!-- 0.90 s -->
    <g style="fill: #e6edf3" transform="translate(237.454848 147.470802) scale(0.09 -0.09)">
     <use xlink:href="#DejaVuSans-30"/>
     <use xlink:href="#DejaVuSans-2e" transform="translate(63.623047 0)"/>
     <use xlink:href="#DejaVuSans-39" transform="translate(95.410156 0)"/>
     <use xlink:href="#DejaVuSans-30" transform="translate(159.033203 0)"/>
     <use xlink:href="#DejaVuSans-20" transform="translate(222.65625 0)"/>
     <use xlink:href="#DejaVuSans-73" transform="translate(254.443359 0)"/>
    </g>
   </g>
   <g id="text_30">
    <!-- 6.52 s -->
    <g style="fill: #e6edf3" transform="translate(587.988904 182.283174) scale(0.09 -0.09)">
     <use xlink:href="#DejaVuSans-36"/>
     <use xlink:href="#DejaVuSans-2e" transform="translate(63.623047 0)"/>
     <use xlink:href="#DejaVuSans-35" transform="translate(95.410156 0)"/>
     <use xlink:href="#DejaVuSans-32" transform="translate(159.033203 0)"/>
     <use xlink:href="#DejaVuSans-20" transform="translate(222.65625 0)"/>
     <use xlink:href="#DejaVuSans-73" transform="translate(254.443359 0)"/>
    </g>
   </g>
   <g id="text_31">
    <!-- 3.57 s -->
    <g style="fill: #e6edf3" transform="translate(403.798993 217.095545) scale(0.09 -0.09)">
     <use xlink:href="#DejaVuSans-33"/>
     <use xlink:href="#DejaVuSans-2e" transform="translate(63.623047 0)"/>
     <use xlink:href="#DejaVuSans-35" transform="translate(95.410156 0)"/>
     <use xlink:href="#DejaVuSans-37" transform="translate(159.033203 0)"/>
     <use xlink:href="#DejaVuSans-20" transform="translate(222.65625 0)"/>
     <use xlink:href="#DejaVuSans-73" transform="translate(254.443359 0)"/>
    </g>
   </g>
   <g id="text_32">
    <!-- 0.51 s -->
    <g style="fill: #e6edf3" transform="translate(213.020329 251.907916) scale(0.09 -0.09)">
     <use xlink:href="#DejaVuSans-30"/>
     <use xlink:href="#DejaVuSans-2e" transform="translate(63.623047 0)"/>
     <use xlink:href="#DejaVuSans-35" transform="translate(95.410156 0)"/>
     <use xlink:href="#DejaVuSans-31" transform="translate(159.033203 0)"/>
     <use xlink:href="#DejaVuSans-20" transform="translate(222.65625 0)"/>
     <use xlink:href="#DejaVuSans-73" transform="translate(254.443359 0)"/>
    </g>
   </g>
   <g id="text_33">
    <!-- 2.59 s -->
    <g style="fill: #e6edf3" transform="translate(342.817646 286.720287) scale(0.09 -0.09)">
     <use xlink:href="#DejaVuSans-32"/>
     <use xlink:href="#DejaVuSans-2e" transform="translate(63.623047 0)"/>
     <use xlink:href="#DejaVuSans-35" transform="translate(95.410156 0)"/>
     <use xlink:href="#DejaVuSans-39" transform="translate(159.033203 0)"/>
     <use xlink:href="#DejaVuSans-20" transform="translate(222.65625 0)"/>
     <use xlink:href="#DejaVuSans-73" transform="translate(254.443359 0)"/>
    </g>
   </g>
   <g id="legend_1">
    <g id="patch_21">
     <path d="M 564.812813 278.600587 
L 584.812813 278.600587 
L 584.812813 271.600587 
L 564.812813 271.600587 
z
" style="fill: #58a6ff"/>
    </g>
    <g id="text_34">
     <!-- avtensor -->
     <g style="fill: #e6edf3" transform="translate(592.812813 278.600587) scale(0.1 -0.1)">
      <use xlink:href="#DejaVuSans-61"/>
      <use xlink:href="#DejaVuSans-76" transform="translate(61.279297 0)"/>
      <use xlink:href="#DejaVuSans-74" transform="translate(120.458984 0)"/>
      <use xlink:href="#DejaVuSans-65" transform="translate(159.667969 0)"/>
      <use xlink:href="#DejaVuSans-6e" transform="translate(221.191406 0)"/>
      <use xlink:href="#DejaVuSans-73" transform="translate(284.570312 0)"/>
      <use xlink:href="#DejaVuSans-6f" transform="translate(336.669922 0)"/>
      <use xlink:href="#DejaVuSans-72" transform="translate(397.851562 0)"/>
     </g>
    </g>
    <g id="patch_22">
     <path d="M 564.812813 293.278712 
L 584.812813 293.278712 
L 584.812813 286.278712 
L 564.812813 286.278712 
z
" style="fill: #f0883e"/>
    </g>
    <g id="text_35">
     <!-- torchcodec -->
     <g style="fill: #e6edf3" transform="translate(592.812813 293.278712) scale(0.1 -0.1)">
      <defs>
       <path id="DejaVuSans-63" d="M 3122 3366 
L 3122 2828 
Q 2878 2963 2633 3030 
Q 2388 3097 2138 3097 
Q 1578 3097 1268 2742 
Q 959 2388 959 1747 
Q 959 1106 1268 751 
Q 1578 397 2138 397 
Q 2388 397 2633 464 
Q 2878 531 3122 666 
L 3122 134 
Q 2881 22 2623 -34 
Q 2366 -91 2075 -91 
Q 1284 -91 818 406 
Q 353 903 353 1747 
Q 353 2603 823 3093 
Q 1294 3584 2113 3584 
Q 2378 3584 2631 3529 
Q 2884 3475 3122 3366 
z
" transform="scale(0.015625)"/>
      </defs>
      <use xlink:href="#DejaVuSans-74"/>
      <use xlink:href="#DejaVuSans-6f" transform="translate(39.208984 0)"/>
      <use xlink:href="#DejaVuSans-72" transform="translate(100.390625 0)"/>
      <use xlink:href="#DejaVuSans-63" transform="translate(139.253906 0)"/>
      <use xlink:href="#DejaVuSans-68" transform="translate(194.234375 0)"/>
      <use xlink:href="#DejaVuSans-63" transform="translate(257.613281 0)"/>
      <use xlink:href="#DejaVuSans-6f" transform="translate(312.59375 0)"/>
      <use xlink:href="#DejaVuSans-64" transform="translate(373.775391 0)"/>
      <use xlink:href="#DejaVuSans-65" transform="translate(437.251953 0)"/>
      <use xlink:href="#DejaVuSans-63" transform="translate(498.775391 0)"/>
     </g>
    </g>
   </g>
  </g>
 </g>
 <defs>
  <clipPath id="pd478d3fde5">
   <rect x="177.310938" y="7.2" width="479.88" height="297.1584"/>
  </clipPath>
 </defs>
</svg>
